<mxfile host="app.diagrams.net" modified="2021-08-27T13:19:15.528Z" agent="5.0 (Windows)" etag="uyOr3x4jfCbqHkRXaSca" version="15.0.2" type="github">
  <diagram id="kHmb1dJ9tgcldMMJJqNc" name="Page-1">
    <mxGraphModel dx="1278" dy="564" grid="1" gridSize="10" guides="1" tooltips="1" connect="1" arrows="1" fold="1" page="1" pageScale="1" pageWidth="850" pageHeight="1100" math="0" shadow="0">
      <root>
        <mxCell id="0" />
        <mxCell id="1" parent="0" />
        <mxCell id="dWfknbIUevJc3LB7MskT-1" value="" style="ellipse;html=1;shape=startState;fillColor=#000000;strokeColor=#ff0000;" parent="1" vertex="1">
          <mxGeometry x="370" y="30" width="30" height="30" as="geometry" />
        </mxCell>
        <mxCell id="dWfknbIUevJc3LB7MskT-2" value="" style="edgeStyle=orthogonalEdgeStyle;html=1;verticalAlign=bottom;endArrow=open;endSize=8;strokeColor=#ff0000;" parent="1" source="dWfknbIUevJc3LB7MskT-1" edge="1">
          <mxGeometry relative="1" as="geometry">
            <mxPoint x="385" y="120" as="targetPoint" />
          </mxGeometry>
        </mxCell>
        <mxCell id="dWfknbIUevJc3LB7MskT-7" style="edgeStyle=orthogonalEdgeStyle;rounded=0;orthogonalLoop=1;jettySize=auto;html=1;entryX=0.5;entryY=0;entryDx=0;entryDy=0;" parent="1" target="dWfknbIUevJc3LB7MskT-4" edge="1">
          <mxGeometry relative="1" as="geometry">
            <mxPoint x="386" y="180" as="sourcePoint" />
          </mxGeometry>
        </mxCell>
        <mxCell id="dWfknbIUevJc3LB7MskT-8" style="edgeStyle=orthogonalEdgeStyle;rounded=0;orthogonalLoop=1;jettySize=auto;html=1;exitX=0.5;exitY=1;exitDx=0;exitDy=0;entryX=0.5;entryY=0;entryDx=0;entryDy=0;" parent="1" source="dWfknbIUevJc3LB7MskT-4" edge="1">
          <mxGeometry relative="1" as="geometry">
            <mxPoint x="390" y="370" as="targetPoint" />
          </mxGeometry>
        </mxCell>
        <mxCell id="Z2B510rpl8rBDWUOBYsx-8" style="edgeStyle=orthogonalEdgeStyle;rounded=0;orthogonalLoop=1;jettySize=auto;html=1;entryX=0;entryY=0.5;entryDx=0;entryDy=0;" edge="1" parent="1" source="dWfknbIUevJc3LB7MskT-4" target="Z2B510rpl8rBDWUOBYsx-10">
          <mxGeometry relative="1" as="geometry">
            <mxPoint x="530" y="270" as="targetPoint" />
          </mxGeometry>
        </mxCell>
        <mxCell id="dWfknbIUevJc3LB7MskT-4" value="" style="rhombus;whiteSpace=wrap;html=1;" parent="1" vertex="1">
          <mxGeometry x="360" y="230" width="70" height="80" as="geometry" />
        </mxCell>
        <mxCell id="dWfknbIUevJc3LB7MskT-9" style="edgeStyle=orthogonalEdgeStyle;rounded=0;orthogonalLoop=1;jettySize=auto;html=1;entryX=0.5;entryY=0;entryDx=0;entryDy=0;" parent="1" target="dWfknbIUevJc3LB7MskT-6" edge="1">
          <mxGeometry relative="1" as="geometry">
            <mxPoint x="390" y="430" as="sourcePoint" />
          </mxGeometry>
        </mxCell>
        <mxCell id="dWfknbIUevJc3LB7MskT-6" value="" style="ellipse;html=1;shape=endState;fillColor=#000000;strokeColor=#ff0000;" parent="1" vertex="1">
          <mxGeometry x="380" y="520" width="30" height="30" as="geometry" />
        </mxCell>
        <mxCell id="Z2B510rpl8rBDWUOBYsx-6" value="payment detail" style="rounded=1;whiteSpace=wrap;html=1;" vertex="1" parent="1">
          <mxGeometry x="335" y="120" width="120" height="60" as="geometry" />
        </mxCell>
        <mxCell id="Z2B510rpl8rBDWUOBYsx-10" value="&lt;div&gt;check your detail&lt;br&gt;&lt;/div&gt;" style="rounded=1;whiteSpace=wrap;html=1;" vertex="1" parent="1">
          <mxGeometry x="550" y="290" width="120" height="60" as="geometry" />
        </mxCell>
        <mxCell id="Z2B510rpl8rBDWUOBYsx-11" value="payment done" style="rounded=1;whiteSpace=wrap;html=1;" vertex="1" parent="1">
          <mxGeometry x="335" y="370" width="120" height="60" as="geometry" />
        </mxCell>
        <mxCell id="Z2B510rpl8rBDWUOBYsx-12" value="not valid" style="text;html=1;strokeColor=none;fillColor=none;align=center;verticalAlign=middle;whiteSpace=wrap;rounded=0;" vertex="1" parent="1">
          <mxGeometry x="455" y="240" width="55" height="30" as="geometry" />
        </mxCell>
        <mxCell id="Z2B510rpl8rBDWUOBYsx-13" value="valid" style="text;html=1;strokeColor=none;fillColor=none;align=center;verticalAlign=middle;whiteSpace=wrap;rounded=0;" vertex="1" parent="1">
          <mxGeometry x="400" y="320" width="40" height="20" as="geometry" />
        </mxCell>
      </root>
    </mxGraphModel>
  </diagram>
</mxfile>
